<?xml version="1.0" encoding="utf-8"?>
<!-- Generator: Adobe Illustrator 23.0.1, SVG Export Plug-In . SVG Version: 6.00 Build 0)  -->
<svg version="1.1" id="Слой_1" xmlns="http://www.w3.org/2000/svg" xmlns:xlink="http://www.w3.org/1999/xlink" x="0px" y="0px"
	 viewBox="0 0 1176.8 746.6" style="enable-background:new 0 0 1176.8 746.6;" xml:space="preserve">
<style type="text/css">
	.st0{display:none;}
</style>
<rect x="-202.3" y="-361.9" class="st0" width="2994.1" height="1534.2"/>
<path d="M107.8,249.8v389l389-141.8V107.8L107.8,249.8z M423.3,453.3L373,471.5c-0.4,0.1-0.8,0.3-1.4,0.5c0-48.9,0-97.7,0-146.5
	c-0.1,0-0.1,0-0.2,0c-0.2,0.5-0.5,1-0.8,1.5c-19.9,39.3-39.7,78.5-59.6,117.8c-4.2,1.5-8.5,3-12.7,4.6c-0.8,0.3-1.2,0.1-1.7-0.5
	c-19.9-24.2-39.8-48.3-59.6-72.5c-0.7-0.8-1.3-1.6-2.2-2.6c0,0.7,0,1.2,0,1.6c0,48.4,0,145.2,0,145.2v1.3l-1.2,0.4
	c0,0-32.9,12-49.3,17.9c-0.3,0.1-0.7,0.2-1.1,0.3c0-81.7,0-163.3,0-245c7.6-2.8,15.2-5.5,22.8-8.2c8-2.9,16-5.8,23.9-8.8
	c0.8-0.3,1.3-0.2,1.9,0.5c24.3,29.5,48.7,59,73.1,88.5c0.2,0.2,0.3,0.4,0.6,0.7c0.2-0.4,0.4-0.8,0.6-1.1
	c15.6-31.6,31.3-63.1,46.9-94.7c7.8-15.7,15.6-31.5,23.4-47.2c15.1-5.5,30.3-11.1,45.5-16.6c0.3-0.1,0.6-0.2,1.1-0.3
	c0,0.5,0,0.9,0,1.3c0,80.8,0,161.6,0,242.4C423.3,452.4,423.3,453.3,423.3,453.3z"/>
<path d="M533.8,107.8V497l176.3,141.8V249.6L533.8,107.8z M636.9,507.4L590,470.3V228.1l46.8,37.1v242.2L636.9,507.4L636.9,507.4z"
	/>
<path d="M747.1,249.6v389.2L1069,522.5v-389L747.1,249.6z M1011.1,289.2l-69.8,24.9V503l-54.8,19.2V333.6l-78.3,27.9v-56l202.8-72.3
	L1011.1,289.2L1011.1,289.2z"/>
</svg>
