<svg version="1.1" id="Слой_1" xmlns="http://www.w3.org/2000/svg" xmlns:xlink="http://www.w3.org/1999/xlink" x="0px" y="0px"
	 viewBox="0 0 2518.7 746.6" style="enable-background:new 0 0 2518.7 746.6;" xml:space="preserve">
<style type="text/css">
	.st0{display:none;}
	.st1{fill:#FFFFFF;}
</style>
<rect x="-201.9" y="-361.9" class="st0" width="2994.1" height="1534.2"/>
<path class="st1" d="M108.2,249.8v389l389-141.8V107.8L108.2,249.8z M423.7,453.3l-50.3,18.2c-0.4,0.1-0.8,0.3-1.4,0.5
	c0-48.9,0-97.7,0-146.5c-0.1,0-0.1,0-0.2,0c-0.2,0.5-0.5,1-0.8,1.5c-19.9,39.3-39.7,78.5-59.6,117.8c-4.2,1.5-8.5,3-12.7,4.6
	c-0.8,0.3-1.2,0.1-1.7-0.5c-19.9-24.2-39.8-48.3-59.6-72.5c-0.7-0.8-1.3-1.6-2.2-2.6c0,0.7,0,1.2,0,1.6c0,48.4,0,145.2,0,145.2v1.3
	l-1.2,0.4c0,0-32.9,12-49.3,17.9c-0.3,0.1-0.7,0.2-1.1,0.3c0-81.7,0-163.3,0-245c7.6-2.8,15.2-5.5,22.8-8.2c8-2.9,16-5.8,23.9-8.8
	c0.8-0.3,1.3-0.2,1.9,0.5c24.3,29.5,48.7,59,73.1,88.5c0.2,0.2,0.3,0.4,0.6,0.7c0.2-0.4,0.4-0.8,0.6-1.1
	c15.6-31.6,31.3-63.1,46.9-94.7c7.8-15.7,15.6-31.5,23.4-47.2c15.1-5.5,30.3-11.1,45.5-16.6c0.3-0.1,0.6-0.2,1.1-0.3
	c0,0.5,0,0.9,0,1.3c0,80.8,0,161.6,0,242.4C423.7,452.4,423.7,453.3,423.7,453.3z"/>
<path class="st1" d="M534.2,107.8V497l176.3,141.8V249.6L534.2,107.8z M637.3,507.4l-46.9-37.1V228.1l46.8,37.1v242.2L637.3,507.4
	L637.3,507.4z"/>
<path class="st1" d="M747.5,249.6v389.2l321.9-116.3v-389L747.5,249.6z M1011.5,289.2l-69.8,24.9V503l-54.8,19.2V333.6l-78.3,27.9
	v-56l202.8-72.3L1011.5,289.2L1011.5,289.2z"/>
<g>
	<path class="st1" d="M1148.7,395.8v-22.3h93v22.3h-34.7v85.5h-23.9v-85.5H1148.7z"/>
	<path class="st1" d="M1260.1,481.3V373.5h82.4v22.3H1284v20h54.7v21.6H1284v21.6h59.9v22.3L1260.1,481.3L1260.1,481.3z"/>
	<path class="st1" d="M1460.9,460.9c-9.7,14.2-26.6,22.2-45.9,22.2c-16.8,0-30-5.1-40-15.4c-10-10.2-15.1-23.6-15.1-40.4
		c0-15.7,5.2-29,15.6-39.7c10.3-10.6,23.7-16,40.2-16c19.2,0,35.7,8.2,43.6,20.5l-16.2,14.8c-6.2-7.9-16.5-12.2-25.7-12.2
		c-9.7,0-17.6,2.9-23.6,8.8c-6,6-9.1,13.9-9.1,23.9c0,9.7,3.1,17.6,9.2,23.6c6,6,13.7,9.1,23.1,9.1c12.2,0,22.2-4.8,29.7-14.3
		L1460.9,460.9z"/>
	<path class="st1" d="M1546.4,481.3v-43.1h-47.9v43.1h-23.9V373.5h23.9v42.4h47.9v-42.4h23.9v107.8L1546.4,481.3L1546.4,481.3z"/>
	<path class="st1" d="M1689.4,481.3H1671l-52.2-63.9v63.9h-23.3V373.5h18.3l52.4,64.1v-64.1h23.3V481.3z"/>
	<path class="st1" d="M1719.3,387.8c10.6-10.8,23.9-16.2,39.4-16.2s28.6,5.2,39.4,15.9c10.6,10.6,16,24,16,39.9s-5.4,29.1-16,39.7
		c-10.8,10.6-23.9,16-39.4,16s-28.7-5.4-39.4-16c-10.8-10.6-16.2-23.9-16.2-39.7C1703.1,411.8,1708.5,398.6,1719.3,387.8z
		 M1727.9,427.4c0,9.7,3.1,17.6,9.1,23.6c6,6,13.2,9.1,21.7,9.1c8.8,0,16-3.1,21.9-9.1s8.8-13.9,8.8-23.6s-3.1-17.6-9.1-23.6
		c-6.2-6-13.4-9.1-21.6-9.1c-8.5,0-15.7,3.1-21.7,9.1C1731,409.8,1727.9,417.7,1727.9,427.4z"/>
	<path class="st1" d="M1827.9,481.3V373.5h23.9v85.5h58.2v22.3L1827.9,481.3L1827.9,481.3z"/>
	<path class="st1" d="M1925.8,387.8c10.6-10.8,23.9-16.2,39.4-16.2s28.7,5.2,39.4,15.9c10.6,10.6,16,24,16,39.9s-5.4,29.1-16,39.7
		c-10.8,10.6-23.9,16-39.4,16s-28.6-5.4-39.4-16c-10.8-10.6-16.2-23.9-16.2-39.7C1909.6,411.8,1915,398.6,1925.8,387.8z
		 M1934.4,427.4c0,9.7,3.1,17.6,9.1,23.6s13.2,9.1,21.7,9.1c8.8,0,16-3.1,21.9-9.1s8.8-13.9,8.8-23.6s-3.1-17.6-9.1-23.6
		c-6.2-6-13.4-9.1-21.6-9.1c-8.5,0-15.7,3.1-21.7,9.1C1937.5,409.8,1934.4,417.7,1934.4,427.4z"/>
	<path class="st1" d="M2080.6,442.5v-21.6h50.2v43.6c-10.6,11.7-26.3,18.6-43.4,18.6c-17.1,0-31-5.1-41.9-15.4S2029,444,2029,427.4
		c0-15.7,5.2-29,15.7-39.7c10.3-10.6,23.7-16,40-16c9.2,0,17.9,1.7,25.9,5.2c8,3.5,13.9,8.3,17.7,14.2l-16.5,14.8
		c-6.6-7.4-15.2-11.1-26.2-11.1c-19.7,0-31.9,12.3-31.9,32.6c0,20.5,13.6,32.6,33.7,32.6c7.8,0,14.6-2,20.3-6.2v-11.4L2080.6,442.5
		L2080.6,442.5z"/>
	<path class="st1" d="M2239.2,373.5l-43.7,69.1v38.7h-23.9v-38.7l-43.3-69.1h28.5l27.1,43.1l27.7-43.1H2239.2z"/>
</g>
<g>
	<path class="st1" d="M1148.8,329.4V221.6h22.2l34.5,51.6l32.8-51.6h21.6v107.8h-23.9v-64.7l-28,43h-6.3l-28.9-43.4v65.1
		L1148.8,329.4L1148.8,329.4z"/>
	<path class="st1" d="M1286.9,329.4V221.6h82.4v22.3h-58.5v20h54.7v21.6h-54.7v21.6h59.9v22.3L1286.9,329.4L1286.9,329.4z"/>
	<path class="st1" d="M1393.9,329.4V221.6h34.2c46.2,0,62.1,24.3,62.1,52.5c0,16.5-5.4,29.7-16,39.9c-10.6,10.3-26.8,15.4-48.4,15.4
		L1393.9,329.4L1393.9,329.4z M1417.8,243.9v63.1h10c25.1,0,37.7-10.9,37.7-33c0-20.2-12.6-30.2-37.7-30.2L1417.8,243.9
		L1417.8,243.9z"/>
	<path class="st1" d="M1512.7,329.4V221.6h23.9v107.8H1512.7z"/>
	<path class="st1" d="M1547.6,329.4l47.3-107.8h17.7l47.3,107.8h-24.9l-8.8-20H1581l-8.8,20H1547.6z M1603.5,257l-14.2,32.2h28
		L1603.5,257z"/>
	<path class="st1" d="M1671,329.4V221.6h23.9v107.8H1671z"/>
	<path class="st1" d="M1816.7,329.4h-18.5l-52.2-63.9v63.9h-23.2V221.6h18.3l52.4,64.1v-64.1h23.3L1816.7,329.4L1816.7,329.4z"/>
	<path class="st1" d="M1895.3,292.1c-6-4-15.1-5.2-25.6-8.8c-15.1-4.6-30-11.9-30-31.4c0-8.9,3.8-16.6,11.7-23.1
		c7.7-6.5,17.7-9.7,30-9.7c18.2,0,32.2,6.6,42.2,19.9l-16,15.4c-7.8-8.6-16.8-12.9-27.1-12.9c-10.8,0-16.2,3.4-16.2,10.2
		c0,8.6,15.1,9.5,30,14.6c10.5,3.5,19.6,6.9,25.6,15.7c2.9,4.5,4.5,9.7,4.5,15.7c0,9.7-3.8,17.9-11.7,24.3
		c-7.8,6.6-17.6,9.9-29.1,9.9c-24.5,0-41.9-10.9-49.9-26.3l17.4-14.5c7.2,11.5,18.8,18.5,31.9,18.5c5.7,0,9.9-0.9,12.6-2.9
		C1901.2,302.9,1901.3,296.1,1895.3,292.1z"/>
	<path class="st1" d="M1936.1,243.9v-22.3h93v22.3h-34.7v85.5h-23.9v-85.5L1936.1,243.9L1936.1,243.9z"/>
	<path class="st1" d="M2047,329.4V221.6h23.9v107.8H2047z"/>
	<path class="st1" d="M2192.7,329.4h-18.5l-52.2-63.9v63.9h-23.2V221.6h18.3l52.4,64.1v-64.1h23.3L2192.7,329.4L2192.7,329.4z"/>
	<path class="st1" d="M2309.3,309.1c-9.7,14.2-26.6,22.2-45.9,22.2c-16.8,0-30-5.1-40-15.4c-10-10.2-15.1-23.6-15.1-40.4
		c0-15.7,5.2-28.9,15.6-39.7c10.3-10.6,23.7-16,40.2-16c19.2,0,35.7,8.2,43.6,20.5l-16.2,14.8c-6.2-7.9-16.5-12.2-25.7-12.2
		c-9.7,0-17.6,2.9-23.6,8.8c-6,6-9.1,13.9-9.1,23.9c0,9.7,3.1,17.6,9.2,23.6c6,6,13.7,9.1,23.1,9.1c12.2,0,22.2-4.8,29.7-14.3
		L2309.3,309.1z"/>
	<path class="st1" d="M2317.9,243.9v-22.3h93v22.3h-34.6v85.5h-23.9v-85.5L2317.9,243.9L2317.9,243.9z"/>
</g>
</svg>
